<?xml version="1.0" encoding="UTF-8"?>
<svg version="1.1" viewBox="0 0 101 101" xmlns="http://www.w3.org/2000/svg">
    <g fill="none" fill-rule="evenodd">
        <g transform="translate(-283 -127)" fill-rule="nonzero">
            <path d="m381.48 177.88c0 26.242-21.273 47.515-47.515 47.515s-47.515-21.273-47.515-47.515 21.273-47.515 47.515-47.515 47.515 21.273 47.515 47.515z" fill="#FFEDA2" stroke="#000" stroke-width="5"/>
            <path d="m331.66 194.72c-4.5417 0.54167-9.3542 1.1458-14.438 1.8125-1.0417 0.12501-1.1875 0.60417-0.4375 1.4375 1.4166 1.4167 3.3333 1.8542 5.75 1.3125 5.6666-1.4167 14.292-2.125 25.875-2.125 0.66662 1e-5 1.3333 0.02084 2 0.0625 0.99995 1e-5 1.6041-0.20833 1.8125-0.625 0.29162-0.54166 0.04162-1.1667-0.75-1.875-2.6667-2-5.4167-2.6667-8.25-2-2.2917 0.41668-5 0.91668-8.125 1.5 0.16664-6.2916 0.29164-12.292 0.375-18 8.875-1.125 17-1.2708 24.375-0.4375 1.1249 0.12503 1.8333-0.02081 2.125-0.4375 0.29161-0.66664 0.16661-1.25-0.375-1.75-1.4167-1.2916-3.1459-2.375-5.1875-3.25-0.66672-0.29163-1.6042-0.22913-2.8125 0.1875-1.5417 0.4167-7.5625 1.3125-18.062 2.6875-3e-5 -8.6666 0.41664-14.354 1.25-17.062 0.54163-0.99995 0.47913-1.8124-0.1875-2.4375-1.75-1.375-3.3334-2.2708-4.75-2.6875-0.75003-0.16662-1.4792 0.06255-2.1875 0.6875-0.29169 0.37505-0.29169 0.83338 0 1.375 1.375 2.25 2.0416 4.6459 2 7.1875-3e-5 4.2917-3e-5 8.7709 0 13.438-4.7917 0.54169-8.9375 1.0834-12.438 1.625-4.1667 0.66669-7.8333 1-11 1-0.66667 3e-5 -1.0208 0.27086-1.0625 0.8125 0 0.54169 0.4375 1.1459 1.3125 1.8125 1.875 1.25 3.8958 1.625 6.0625 1.125 4-1.5 9.7083-2.625 17.125-3.375-3e-5 5.7917-3e-5 11.792 0 18" fill="#000"/>
        </g>
    </g>
</svg>
