<?xml version="1.0" encoding="UTF-8"?>
<svg version="1.1" viewBox="0 0 101 101" xmlns="http://www.w3.org/2000/svg">
    <g fill="none" fill-rule="evenodd">
        <g transform="translate(3 -127)" fill-rule="nonzero">
            <path d="m95.483 177.88c0 26.242-21.273 47.515-47.515 47.515s-47.515-21.273-47.515-47.515 21.273-47.515 47.515-47.515 47.515 21.273 47.515 47.515z" fill="#FFEDA2" stroke="#c00" stroke-width="5"/>
            <path d="m30.811 171.69c1.375 2.9167 1.5833 8.2292 0.625 15.938-0.29168 2.25-0.75001 4.5208-1.375 6.8125-0.62501 2.0417-0.16668 4.0625 1.375 6.0625 0.04165 0.125 0.14582 0.25 0.3125 0.375 0.79165 0.66666 1.4375 0.41667 1.9375-0.75 0.62498-1.75 0.93748-3.625 0.9375-5.625 0.12498-10.875 0.37498-17.521 0.75-19.938 0.29165-1.1666 0.22915-1.9791-0.1875-2.4375-0.75002-0.91664-1.4167-1.6666-2-2.25-0.16668-0.24997-0.39585-0.43747-0.6875-0.5625 1.7916-2.625 3.9583-6.4375 6.5-11.438 0.87498-1.625 1.2916-2.5 1.25-2.625-0.12502-0.41662-0.52086-0.89579-1.1875-1.4375-0.75002-0.54162-1.5625-0.89579-2.4375-1.0625-1-0.24995-1.75-0.29162-2.25-0.125-0.41668 0.16671-0.54168 0.52088-0.375 1.0625 0.99998 3.75-1.0834 9.4375-6.25 17.062-0.12501 0.12503-0.22918 0.27086-0.3125 0.4375-1.5417 2.1667-4.2708 5.375-8.1875 9.625-0.375 0.29169-0.29167 0.45835 0.25 0.5 1.6667-0.24998 4.6875-2.5416 9.0625-6.875 0.66665-0.87497 1.4166-1.7916 2.25-2.75m22.562 19.062c-3.5417 0.41668-7.3334 0.91667-11.375 1.5-0.87502 0.04167-0.97919 0.43751-0.3125 1.1875 0.54164 0.54167 1.2083 0.93751 2 1.1875 0.91664 0.25 1.6875 0.27084 2.3125 0.0625 5.5-1.375 13.542-2.0625 24.125-2.0625 0.79161 1e-5 1.3124-0.16666 1.5625-0.5 0.24994-0.49999 0.02078-1.0417-0.6875-1.625-2.2917-1.75-4.6459-2.2708-7.0625-1.5625-2.0417 0.37501-4.5 0.81251-7.375 1.3125 0.16663-4.9166 0.33329-9.6666 0.5-14.25 2.2916-0.37498 7.4374-0.99998 15.438-1.875 0.49994 0.12503 0.97911-0.14581 1.4375-0.8125 0.04161-0.54164-0.47922-1.1041-1.5625-1.6875-1.7917-1.0416-4.1042-1.1458-6.9375-0.3125-5.2917 1.0417-8.0625 1.6459-8.3125 1.8125-4e-5 -6.375 0.56246-12.021 1.6875-16.938 0.16662-0.54162-0.27088-1.2083-1.3125-2-1.7917-0.91662-3.3334-1.4791-4.625-1.6875-0.7917-0.16662-1.4167-0.02079-1.875 0.4375-0.4167 0.41671-0.39587 1 0.0625 1.75 1.5 2.0417 2.25 3.8125 2.25 5.3125 0.24996 4.4167 0.3958 9 0.4375 13.75-2.2917 0.29169-4.5417 0.56253-6.75 0.8125-2.5 0.16669-5.125 0.39586-7.875 0.6875-1.4167 0.16669-1.5834 0.68752-0.5 1.5625 1.625 1.25 2.9791 1.8125 4.0625 1.6875 0.54164-0.29165 4.2291-0.93748 11.062-1.9375-0.0417 4.5417-0.1667 9.2708-0.375 14.188" fill="#c00"/>
        </g>
    </g>
</svg>
