<?xml version="1.0" encoding="UTF-8"?>
<svg version="1.1" viewBox="0 0 101 101" xmlns="http://www.w3.org/2000/svg">
    <g fill="none" fill-rule="evenodd">
        <g transform="translate(3 -647)" fill-rule="nonzero">
            <path d="m95.483 697.1c0 26.242-21.273 47.515-47.515 47.515s-47.515-21.273-47.515-47.515 21.273-47.515 47.515-47.515 47.515 21.273 47.515 47.515z" fill="#FFEDA2" stroke="#c00" stroke-width="5"/>
            <path d="m47.655 683.16c1.4166 1.0417 2.7083 1.375 3.875 1 7-2.1666 10.75-2.8125 11.25-1.9375 0.37495 0.6667 0.49995 1.875 0.375 3.625-0.25005 5.2917-0.93755 9.1458-2.0625 11.562-0.54172 1.1667-1.3126 1.7292-2.3125 1.6875-0.75005-0.16665-1.4584-0.37498-2.125-0.625-1-0.41665-1.1667-0.08332-0.5 1 1.5 1.75 2.5833 3.2917 3.25 4.625 0.99995 0.91668 1.875 0.91668 2.625 0 1.2916-1.125 2.3333-2.625 3.125-4.5 0.91661-2.1666 1.4583-6.5 1.625-13 0.04161-2.2916 0.43744-4.0208 1.1875-5.1875 0.49994-0.54163 0.60411-1.0416 0.3125-1.5-0.41672-0.41663-1.75-1.0625-4-1.9375-0.91672-0.29163-1.75-0.1458-2.5 0.4375-0.75005 0.4167-2.5417 1.0209-5.375 1.8125-2.7917 0.7917-5.375 1.3334-7.75 1.625 0.04163-0.12497 0.12496-0.24997 0.25-0.375 1.4166-1.9166 2.9166-4.3333 4.5-7.25 0.62496-1.375 1.2291-2.3958 1.8125-3.0625 0.37496-0.49996 0.43746-1.0208 0.1875-1.5625-0.25004-0.54162-1.0209-1.2291-2.3125-2.0625-1.1667-0.66662-2.1667-0.93745-3-0.8125-0.7917 0.16671-0.95837 0.68755-0.5 1.5625 0.87496 1.375 0.0833 4.7709-2.375 10.188-1.1667 2.4167-2.5834 5-4.25 7.75-0.4167 0.50003-0.64586 0.87503-0.6875 1.125-0.12503 0.50003 0.12497 0.66669 0.75 0.5 1.125-0.49997 2.6666-2.0625 4.625-4.6875m-3.4375 8.25c-0.4167-0.37498-0.93753-0.64581-1.5625-0.8125-0.50003-0.16664-0.89586-0.14581-1.1875 0.0625-0.25003 0.12502-0.27086 0.52086-0.0625 1.1875 0.49997 1.5 0.68747 2.9375 0.5625 4.3125-0.50003 8.5417-0.37503 13.979 0.375 16.312 0.16664 1.2917 0.8958 2.4792 2.1875 3.5625 4.75 3.4167 11.979 4.1458 21.688 2.1875 0.29161-0.125 0.64578-0.20834 1.0625-0.25 2.2916-0.66667 4.5624-1.7708 6.8125-3.3125 0.7916-0.54167 0.95827-1.375 0.5-2.5-0.50006-1.4167-0.9584-4.2292-1.375-8.4375-6e-5 -0.66665-0.14589-1.125-0.4375-1.375-0.25006-0.16665-0.50006 0.12501-0.75 0.875-1.4167 4.4167-2.5834 7.2917-3.5 8.625-0.87506 1.0417-2.5 1.8958-4.875 2.5625-5.5 1.4167-10.583 1.3542-15.25-0.1875-1.7917-0.79167-2.9167-1.7292-3.375-2.8125-1.125-2.25-1.4167-5.6458-0.875-10.188 0.54163 0.25001 1.1458 0.27085 1.8125 0.0625 1.6666-0.41665 4.375-0.83332 8.125-1.25 0.41662-0.04165 0.64579-0.24998 0.6875-0.625-4e-5 -0.29165-0.47921-0.70832-1.4375-1.25 0.79162-2.5416 1.6041-4.1875 2.4375-4.9375 0.91662-0.99998 0.91662-1.7916 0-2.375-0.75004-0.41664-1.6459-0.97914-2.6875-1.6875-0.75004-0.41664-2-0.14581-3.75 0.8125-1.625 0.62502-3.3334 1.1042-5.125 1.4375m0.9375 2c-3e-5 -0.12498-3e-5 -0.22914 0-0.3125 0.41663-0.12498 1.9583-0.47914 4.625-1.0625 0.79163-0.16664 1.3125-0.08331 1.5625 0.25 0.12496 0.12502-0.22921 2.0208-1.0625 5.6875-2.1667 0.62502-4.1667 1.1458-6 1.5625 0.16663-1.9166 0.4583-3.9583 0.875-6.125m-21.312-10.5c-0.25001 2.5417-0.72918 5-1.4375 7.375-0.50001 1.375-0.18751 2.6667 0.9375 3.875 0.49999 0.62502 1.0833 0.56252 1.75-0.1875 1.625-2.125 2.0208-4.8541 1.1875-8.1875-0.16668-1.2916-0.52085-2.375-1.0625-3.25-0.29168-0.29163-0.54168-0.41663-0.75-0.375-0.29168 0.1667-0.50001 0.4167-0.625 0.75m8.875 17.062c0.16665 0.29168 0.49998 0.66668 1 1.125 1.1666 1.25 2.3958 2.625 3.6875 4.125 0.37497 0.41668 0.81247 0.66668 1.3125 0.75 0.29164 0.04168 0.56247-0.14582 0.8125-0.5625 0.24997-0.41666 0.29164-1.125 0.125-2.125-0.12503-0.91665-0.77086-1.7708-1.9375-2.5625-2.7917-1.5416-4.3959-2.25-4.8125-2.125 0.37498-2.6666 0.66664-6.875 0.875-12.625 1.5416-0.87497 2.7916-1.6041 3.75-2.1875 1.875-1.5 3.3333-2.4166 4.375-2.75 0.74997-0.29163 0.93747-0.74997 0.5625-1.375-0.4167-0.54163-1.0417-1.0833-1.875-1.625-0.79169-0.49996-1.3959-0.7083-1.8125-0.625-0.41669 0.0417-0.56253 0.2917-0.4375 0.75 0.04164 1.0417-0.79169 2.4792-2.5 4.3125-0.66669 0.6667-1.3125 1.3959-1.9375 2.1875 0.04164-4.9166 0.56248-8.625 1.5625-11.125 0.29164-0.54162 0.20831-1.0416-0.25-1.5-0.91669-0.74996-2.1458-1.3333-3.6875-1.75-1-0.24996-1.6667-0.22912-2 0.0625-0.37502 0.29171-0.39585 0.66671-0.0625 1.125 2.4166 3.75 2.5833 12.896 0.5 27.438-1.375 5.4167-2.7917 9.2708-4.25 11.562-1.1667 1.625-2.6458 3.3125-4.4375 5.0625-0.41668 0.375-0.60418 0.64583-0.5625 0.8125 0.04166 0.16667 0.29166 0.20833 0.75 0.125 0.49999 0.16666 1.3542-0.10417 2.5625-0.8125 4.5-2.4167 7.3958-7.6458 8.6875-15.688" fill="#c00"/>
        </g>
    </g>
</svg>
