<?xml version="1.0" encoding="UTF-8"?>
<svg version="1.1" viewBox="0 0 101 101" xmlns="http://www.w3.org/2000/svg">
    <g fill="none" fill-rule="evenodd">
        <g transform="translate(3 -387)" fill-rule="nonzero">
            <path d="m95.483 437.49c0 26.242-21.273 47.515-47.515 47.515s-47.515-21.273-47.515-47.515 21.273-47.515 47.515-47.515 47.515 21.273 47.515 47.515z" fill="#FFEDA2" stroke="#c00" stroke-width="5"/>
            <path d="m39.029 437.55c0.29164 0.29169 0.74997 0.68752 1.375 1.1875 1.0416 0.87502 2.1666 1.8542 3.375 2.9375 0.49997 0.41669 1.0416 0.62502 1.625 0.625 0.37497-0.04165 0.6458-0.31248 0.8125-0.8125 0.16663-0.54165 0.0833-1.3333-0.25-2.375-0.37503-1.125-2.3334-2.1041-5.875-2.9375-0.41669-0.12497-0.75003-0.14581-1-0.0625 0.04164-2 0.10414-4.1041 0.1875-6.3125 1.0416-0.29163 2.2083-0.56247 3.5-0.8125 2.0416-0.49997 3.2291-0.8958 3.5625-1.1875 0.41663-0.37497 0.5208-0.7708 0.3125-1.1875-0.37503-0.54163-1.25-0.97913-2.625-1.3125-1.6667-0.24996-3.2084-0.04163-4.625 0.625-3e-5 -4.625 0.47914-8.6041 1.4375-11.938 0.54164-1.125 0.29164-2.0624-0.75-2.8125-0.66669-0.49995-1.625-1.1458-2.875-1.9375-1.0417-0.79161-2-0.83328-2.875-0.125-0.25002 0.16672-0.22919 0.60422 0.0625 1.3125 1.375 2.125 2.0625 4.2292 2.0625 6.3125 0.04164 3.0417 0.06248 6.3334 0.0625 9.875-0.04169 0.0417-0.06252 0.1667-0.0625 0.375-6.375 1.5-10.75 2.3959-13.125 2.6875-1.75 0.2917-2 0.83336-0.75 1.625 1.875 1 4.4166 1.1459 7.625 0.4375 1.5-0.37497 3.0833-0.68747 4.75-0.9375-2.875 5.875-7.75 12.625-14.625 20.25-0.29167 0.41668-0.18751 0.68751 0.3125 0.8125 0.91666 0.12501 3.8542-2.2292 8.8125-7.0625 2.2916-2.375 4.5208-5.3958 6.6875-9.0625-0.16669 3.1667-0.25002 6.4792-0.25 9.9375-0.25002 3.2917-0.83336 6.4792-1.75 9.5625-0.50002 1.75-0.20835 3.9583 0.875 6.625 0.29164 0.75 0.60414 1.2083 0.9375 1.375 0.29164 0.29166 0.60414 0.25 0.9375-0.125 1.125-0.75 1.7291-2.5 1.8125-5.25-0.04169-1.6667 0.06247-8.4375 0.3125-20.312m13.938 16.25c3.875-0.37499 7.25-0.66666 10.125-0.875 1.25 1.5417 2.3333 3.0625 3.25 4.5625 0.41661 0.79167 0.85411 1.1667 1.3125 1.125 0.74994-0.04166 1.4583-0.8125 2.125-2.3125 0.74994-1.6667 1.0416-3.5208 0.875-5.5625-0.41672-5.2916-0.79172-12.792-1.125-22.5-0.04172-1.375 0.29161-2.5416 1-3.5 0.41661-0.54163 0.41661-1.0416 0-1.5-0.79172-0.87496-2.3542-1.8125-4.6875-2.8125-0.79172-0.41663-1.5209-0.41663-2.1875 0-1.1667 0.50004-4.875 1.5209-11.125 3.0625-0.50004-0.49996-1.2084-0.89579-2.125-1.1875-0.4167-0.16663-0.8542-0.16663-1.3125 0-0.2917 0.16671-0.33337 0.52087-0.125 1.0625 0.12496 0.50004 0.29163 0.9792 0.5 1.4375 1.25 2.2917 1.5 9.125 0.75 20.5-0.1667 1.5417-0.4792 3.3125-0.9375 5.3125-0.5417 2.375-0.06254 4.5 1.4375 6.375 0.41663 0.54167 0.87496 0.54167 1.375 0 0.54163-0.66666 0.81246-1.4792 0.8125-2.4375-4e-5 -0.24999 0.02079-0.49999 0.0625-0.75m9.6875-3.6875c-1.75-0.37499-4.9584 0.14584-9.625 1.5625-3.99e-5 -0.49999 0.02079-3.125 0.0625-7.875 0.04163 2e-5 3.0625-0.22915 9.0625-0.6875 1.1666-0.16665 1.5208-0.58331 1.0625-1.25-0.50005-0.66665-1.375-1.125-2.625-1.375-1.875-0.29165-4.375 0.27085-7.5 1.6875 0.04163-2.75 0.08329-5.1041 0.125-7.0625l8.8125-1.1875c1.0416-0.16664 1.3541-0.54164 0.9375-1.125-0.50005-0.62497-1.2917-1.0208-2.375-1.1875-1.5-0.16664-3.9375 0.4167-7.3125 1.75 0.04163-4.25 0.10413-6.6041 0.1875-7.0625 0.04163-0.29163 0.06246-0.54163 0.0625-0.75 1.125-0.12496 4.2916-0.7083 9.5-1.75 0.87495-0.16663 1.5208-0.0833 1.9375 0.25 1.25 1.125 1.6874 7.8125 1.3125 20.062 0.04161 3.2917-0.08339 5.4584-0.375 6.5-0.12505 0.50001-0.39589 0.79168-0.8125 0.875-0.50005-0.66666-1.3126-1.125-2.4375-1.375" fill="#c00"/>
        </g>
    </g>
</svg>
