<?xml version="1.0" encoding="UTF-8"?>
<svg version="1.1" viewBox="0 0 101 101" xmlns="http://www.w3.org/2000/svg">
    <g fill="none" fill-rule="evenodd">
        <g transform="translate(-283 2)" fill-rule="nonzero">
            <path d="m381.48 48.077c0 26.242-21.273 47.515-47.515 47.515s-47.515-21.273-47.515-47.515 21.273-47.515 47.515-47.515 47.515 21.273 47.515 47.515z" fill="#FFEDA2" stroke="#000" stroke-width="5"/>
            <path d="m313.66 50.67c0.24999 0.25002 0.33333 0.95835 0.25 2.125-0.62501 4.5-3 9.75-7.125 15.75-0.16667 0.16667-0.25 0.39584-0.25 0.6875 0.04167 0.16667 0.16667 0.25 0.375 0.25 2.75-1.125 6.0208-5.6458 9.8125-13.562-1e-5 -0.37498 0.45832-1.375 1.375-3 0.16665-0.41665 0.08332-0.87498-0.25-1.375-0.66668-0.79165-1.3125-1.375-1.9375-1.75 3.7916-1.375 6.25-2.2291 7.375-2.5625-0.16668 6.75-0.45835 11.25-0.875 13.5-0.75002 3.75-0.83335 6.3958-0.25 7.9375 0.12498 0.29167 0.27082 0.66667 0.4375 1.125 0.29165 0.75 0.60415 1.1875 0.9375 1.3125 0.24998 0.29167 0.52082 0.25 0.8125-0.125 0.29165-0.16666 0.64581-0.66666 1.0625-1.5 0.24998-0.625 0.43748-3.8958 0.5625-9.8125-2e-5 -9.4166 0.08331-14.229 0.25-14.437-0.04169-0.041641-0.08335-0.062474-0.125-0.0625 0.04165-3.1666 0.10415-6.6875 0.1875-10.562 0.04165-3.9166 0.43748-7.1875 1.1875-9.8125 0.37498-0.62495 0.47915-1.2083 0.3125-1.75-0.25002-0.41662-1.5208-1.3125-3.8125-2.6875-0.91668-0.66662-1.8125-0.68745-2.6875-0.0625-0.16668 0.16672-0.12501 0.58338 0.125 1.25 1.2916 1.9167 1.9583 3.875 2 5.875 0.04165 2.625 0.08332 5.4584 0.125 8.5-4.5 0.87503-6.7917 1.2709-6.875 1.1875-0.37501-0.37497-0.25001-2.8958 0.375-7.5625 0.37499-0.87496-0.58334-1.875-2.875-3-0.75001-0.37496-1.3125-0.47912-1.6875-0.3125-0.50001 0.25004-0.54167 0.68754-0.125 1.3125 1.0417 1.6667 1.5208 3.6875 1.4375 6.0625-1e-5 1.9167-0.27084 3.375-0.8125 4.375-0.37501 0.7917-0.33334 1.625 0.125 2.5 0.62499 1 1.2708 1.25 1.9375 0.75 1.7917-0.87497 4.625-2.0208 8.5-3.4375-0.04168 2.5-0.10418 5.0834-0.1875 7.75-9.625 2.125-15.188 3.125-16.688 3-0.5 0.041689-0.79167 0.25002-0.875 0.625-0.125 0.50002-0.02083 0.91669 0.3125 1.25 0.79167 0.66669 1.7917 1.3959 3 2.1875 0.375 0.16668 0.79166 0.10418 1.25-0.1875 1.0417-0.66665 2.1458-1.25 3.3125-1.75m18.5-15.625c2.125 2.25 3.6458 3.375 4.5625 3.375 0.54164 0.041699 0.91664-0.3333 1.125-1.125-3e-5 -0.54163-0.20836-1.1875-0.625-1.9375-0.7917-1.0416-2.4167-1.7083-4.875-2-0.41669-0.041629-0.60419 0.18754-0.5625 0.6875-0.04169 0.2917 0.08331 0.62504 0.375 1m7.1875-3.75c0.41663 0.62504 0.91663 1.2292 1.5 1.8125 0.62497 0.5417 1.2083 0.7917 1.75 0.75 0.49996 0.041703 0.8333-0.2708 1-0.9375 0.04163-0.41663-0.12504-0.97913-0.5-1.6875-0.75004-0.87496-1.9584-1.3125-3.625-1.3125-0.2917-0.041626-0.45837 0.14587-0.5 0.5625-0.0417 0.29171 0.0833 0.56254 0.375 0.8125m1.875-4.25c0.91663 0.91671 3.1875 1.0417 6.8125 0.375 0.74996-0.37496 1.2916-0.29162 1.625 0.25 0.12496 0.25004-0.06254 0.66671-0.5625 1.25-3.625 5.1667-10.229 10.583-19.812 16.25-0.62502 0.37502-0.66669 0.62502-0.125 0.75 3.1666 2.5e-5 8.5208-2.8333 16.062-8.5 0.12496-0.16663 0.27079-0.29163 0.4375-0.375 2.25-1.875 4.5-3.9583 6.75-6.25 0.91662-0.99996 2.1041-1.9375 3.5625-2.8125 0.62495-0.37496 0.85412-0.74996 0.6875-1.125-0.04172-0.37496-1.1667-1.1666-3.375-2.375-0.66671-0.49995-1.3959-0.52079-2.1875-0.0625-0.91671 0.41671-2.0209 0.75005-3.3125 1-1.9167 0.29171-3.75 0.52088-5.5 0.6875 0.62496-0.54162 1.2916-1.1666 2-1.875 0.66663-0.79162 1.3125-1.375 1.9375-1.75 0.37496-0.29162 0.52079-0.70828 0.4375-1.25-0.04171-0.41662-0.50004-1.1249-1.375-2.125-0.7917-0.79161-1.5209-1.2499-2.1875-1.375-0.6667-0.041614-0.9167 0.33339-0.75 1.125 0.29163 1.2501-0.9167 3.5209-3.625 6.8125-1.2917 1.5-2.7917 3.0625-4.5 4.6875-0.41669 0.29171-0.68753 0.54171-0.8125 0.75-0.16669 0.37504-3e-5 0.56254 0.5 0.5625 0.87497 3.9e-5 3.3125-1.5416 7.3125-4.625m4.625 21.312c0.49996 11.167 0.22913 17.229-0.8125 18.187-0.4167 0.29167-0.9167 0.35417-1.5 0.1875-1.2917-0.16666-2.5417-0.35416-3.75-0.5625-0.5417-0.04166-0.7917 0.08334-0.75 0.375 0.04163 0.29167 0.29163 0.60417 0.75 0.9375 3 2.5417 4.9791 4.5417 5.9375 6 0.66663 0.66667 1.3333 0.70833 2 0.125 1.2916-1.375 1.9583-3.8125 2-7.3125-0.37504-4-0.56254-10.104-0.5625-18.312 2.625-0.24998 5.6458-0.41664 9.0625-0.5 2.2916 2.3e-5 3.5833-0.20831 3.875-0.625 0.16661-0.41664-0.06256-0.87498-0.6875-1.375-2.2917-1.5416-4.6459-1.8958-7.0625-1.0625-1.5 0.25003-3.1459 0.62503-4.9375 1.125 0.04162-0.74997 0.20829-1.3958 0.5-1.9375 0.37496-0.79164 0.18746-1.4791-0.5625-2.0625-1.125-0.91664-2.3334-1.6041-3.625-2.0625-0.79171-0.29164-1.375-0.24997-1.75 0.125-0.25004 0.2917-0.14587 0.77086 0.3125 1.4375 0.99996 1.625 1.5 3.3542 1.5 5.1875-0.54171 0.041691-1.0834 0.12502-1.625 0.25-4.5417 0.75002-9.5209 1.5625-14.938 2.4375-0.75002 0.041688-0.83336 0.39586-0.25 1.0625 0.54164 0.50002 1.1458 0.83335 1.8125 1 0.79164 0.16669 1.5 0.16669 2.125 0 4-1.25 8.3125-2.125 12.938-2.625m-12.5 8.625c0.99997 1.125 2 2.3334 3 3.625 0.49997 0.62501 1.0625 0.95835 1.6875 1 0.41663 0.04168 0.79163-0.20832 1.125-0.75 0.29163-0.54165 0.3333-1.4792 0.125-2.8125-0.2917-1.375-2.2292-2.7292-5.8125-4.0625-0.62503-0.24998-1.0834-0.33331-1.375-0.25-0.25003 0.12502-0.35419 0.45835-0.3125 1 0.04164 0.50002 0.56247 1.25 1.5625 2.25" fill="#000"/>
        </g>
    </g>
</svg>
