<?xml version="1.0" encoding="UTF-8"?>
<svg version="1.1" viewBox="0 0 101 101" xmlns="http://www.w3.org/2000/svg">
    <g fill="none" fill-rule="evenodd">
        <g transform="translate(3 2)" fill-rule="nonzero">
            <path d="m95.483 48.077c0 26.242-21.273 47.515-47.515 47.515s-47.515-21.273-47.515-47.515 21.273-47.515 47.515-47.515 47.515 21.273 47.515 47.515z" fill="#FFEDA2" stroke="#c00" stroke-width="5"/>
            <path d="m28.092 61.607c0.41666 0.12501 0.91666 0.10418 1.5-0.0625 2.2916-0.54165 5.9792-1.0416 11.062-1.5 0.41664-0.04165 0.66664-0.24999 0.75-0.625-2e-5 -0.37499-0.54169-0.89582-1.625-1.5625 0.99998-2.7916 2.0833-4.7083 3.25-5.75 0.66664-0.74998 0.68747-1.4583 0.0625-2.125-3-2.25-5.5834-2.7291-7.75-1.4375-3 1-5.3542 1.6875-7.0625 2.0625-1e-5 -2.2916 0.04166-4.2916 0.125-6 0.66666 0.16669 1.3333 0.18753 2 0.0625 2.1666-0.62497 5.625-1.25 10.375-1.875 0.41664-0.041639 0.64581-0.2708 0.6875-0.6875-2e-5 -0.29164-0.54169-0.74997-1.625-1.375 0.99998-2.9166 2.0833-4.7291 3.25-5.4375 0.62497-0.66663 0.64581-1.3333 0.0625-2-2.75-2.25-5.1667-2.6875-7.25-1.3125-1.25 0.50004-3.5 1.2917-6.75 2.375 1.75-2.0416 3.125-3.75 4.125-5.125 2.0416-3.0416 3.5416-4.9583 4.5-5.75 0.74998-0.66662 0.79165-1.2916 0.125-1.875-0.79169-0.54162-1.7917-0.93745-3-1.1875-1.125-0.24995-1.9375-0.24995-2.4375 0-0.50001 0.25005-0.58335 0.60422-0.25 1.0625 0.62498 1.2917-0.77085 5.5209-4.1875 12.688-0.04168 3.6e-5 -0.06251 0.02087-0.0625 0.0625-0.62501-0.62496-1.3958-1.0833-2.3125-1.375-0.41667-0.16663-0.87501-0.18746-1.375-0.0625-0.29167 0.25004-0.31251 0.62504-0.0625 1.125 0.79166 2.9167 1.2292 4.8542 1.3125 5.8125 0.49999 8.5 0.10416 15.292-1.1875 20.375-0.62501 2.2917-0.16667 4.4167 1.375 6.375 0.41666 0.54167 0.87499 0.56251 1.375 0.0625 0.41666-0.62499 0.74999-2.2708 1-4.9375m8.5-3.9375c-3.125 0.79168-5.9375 1.4375-8.4375 1.9375-1e-5 -3.5 0.02082-5.9166 0.0625-7.25 0.37499 0.04169 3.1458-0.45831 8.3125-1.5 0.41665-0.041647 0.74998 2e-5 1 0.125 0.29165 0.29169 0.41665 0.77086 0.375 1.4375-0.37502 1.9167-0.77085 3.6667-1.1875 5.25h-0.125m0-17.062c-3 1-5.7084 1.75-8.125 2.25-1e-5 -4.125 0.08332-6.2916 0.25-6.5 0.41666-0.041632 0.91665-0.18747 1.5-0.4375 2.25-0.54163 4.4375-1.125 6.5625-1.75 0.54165-0.16663 0.93748-0.1458 1.1875 0.0625 0.29165 0.2917 0.39581 0.7917 0.3125 1.5-0.41669 1.7917-0.85419 3.3959-1.3125 4.8125-0.16669 3e-5 -0.29169 0.020863-0.375 0.0625m18.312-1.9375c-4e-5 11.5-0.1042 19.063-0.3125 22.687-0.12504 7.9167 0.22913 12.5 1.0625 13.75 0.62496 0.66666 1.125 0.54166 1.5-0.375 0.79163-1.875 1.1666-10.167 1.125-24.875-4e-5 -4.5416 0.04163-8.5208 0.125-11.938 4.25-0.87497 6.6458-1.0416 7.1875-0.5 0.66662 0.5417 0.95828 1.7709 0.875 3.6875-0.12505 1.875-0.22922 3.9792-0.3125 6.3125-5e-5 1.6667-0.29171 2.8334-0.875 3.5-0.25005 0.50002-0.87505 0.62502-1.875 0.375-0.79171-0.12498-1.625-0.24998-2.5-0.375-0.66671-0.16665-1.1042-0.12498-1.3125 0.125-0.16671 0.16669 0.06246 0.47919 0.6875 0.9375 2.1666 1.6667 3.875 3.2292 5.125 4.6875 0.66662 0.62502 1.4166 0.77085 2.25 0.4375 0.54162-0.24998 1.0208-0.99998 1.4375-2.25 0.91661-1.9166 1.3124-4.1041 1.1875-6.5625-0.37505-5.2916-0.31255-8.8333 0.1875-10.625 0.29161-0.66663 0.31245-1.1875 0.0625-1.5625-0.91672-0.62496-2.1042-1.2291-3.5625-1.8125-0.79172-0.29163-1.5-0.31246-2.125-0.0625-1.4167 0.6667-3.5417 1.25-6.375 1.75 0.04163-3.875 0.16663-6.9583 0.375-9.25 0.04163-1.4166 0.45829-2.75 1.25-4 0.29162-0.66662-4e-5 -1.3541-0.875-2.0625-1.0417-0.79162-2.5-1.4583-4.375-2-0.87504-0.16662-1.5834 0.041718-2.125 0.625-0.4167 0.29172-0.3542 0.72922 0.1875 1.3125 1.2916 1.0417 1.9791 2.3334 2.0625 3.875-4e-5 3.0417-0.02087 7.125-0.0625 12.25-1.9167 0.2917-4.0417 0.56253-6.375 0.8125-0.75003-0.74997-1.7709-1.0625-3.0625-0.9375-0.54169 0.1667-0.68753 0.4792-0.4375 0.9375 1.5 3 1.625 6.8125 0.375 11.438-1 1.75-0.79169 3.5833 0.625 5.5l0.125 0.125c0.29164 0.54169 0.62497 0.68752 1 0.4375 1.1666-0.87498 1.7708-2.9583 1.8125-6.25 0.04164-4.875 0.12497-7.9166 0.25-9.125 0.29163 3.1e-5 0.62497-0.020802 1-0.0625 1.6666-0.37497 3.2291-0.68747 4.6875-0.9375" fill="#c00"/>
        </g>
    </g>
</svg>
