<?xml version="1.0" encoding="UTF-8"?>
<svg version="1.1" viewBox="0 0 101 101" xmlns="http://www.w3.org/2000/svg">
    <g fill="none" fill-rule="evenodd">
        <g transform="translate(-283 -257)" fill-rule="nonzero">
            <path d="m381.48 307.69c0 26.242-21.273 47.515-47.515 47.515s-47.515-21.273-47.515-47.515 21.273-47.515 47.515-47.515 47.515 21.273 47.515 47.515z" fill="#FFEDA2" stroke="#000" stroke-width="5"/>
            <path d="m335.34 297.53c0.04163-1.875 0.12496-3.625 0.25-5.25 4.2916-1.125 6.4791-1.7083 6.5625-1.75 0.29162-0.29162 0.37495-0.58329 0.25-0.875-0.29171-0.37495-0.91671-0.66662-1.875-0.875-1.25-0.24995-2.875 0.08338-4.875 1-4e-5 -0.74995 0.06246-1.6874 0.1875-2.8125 0.29163-0.87495-0.14587-1.7916-1.3125-2.75l-0.0625-0.0625c7.875-1.5 11.917-2.3124 12.125-2.4375 0.29162-0.29161 0.37495-0.60411 0.25-0.9375-0.25005-0.49995-0.91672-0.89578-2-1.1875-0.87505-0.24994-3.625 0.25005-8.25 1.5-4.875 1-9.375 1.6459-13.5 1.9375-0.12503 5e-5 -0.22919 0.04172-0.3125 0.125-0.16669-0.16662-0.39586-0.33328-0.6875-0.5-1.5417-1.0416-2.7292-1.625-3.5625-1.75-0.62502 0.04172-1 0.29172-1.125 0.75-0.12502 0.50005 0.02081 0.93755 0.4375 1.3125 0.66664 1.125 1.0833 2.125 1.25 3 0.62498 6.6667 0.29164 13.646-1 20.938-0.29169 1.0417-0.41669 1.6667-0.375 1.875 0.04164 0.41669 0.37498 0.87502 1 1.375 0.66664 0.54169 1.1458 0.85419 1.4375 0.9375 7.375-2.75 16.667-4.375 27.875-4.875 0.62495 0.04169 1.2916 0.25003 2 0.625 0.54161 0.41669 0.77078 1.0209 0.6875 1.8125 0.04161 0.75002-0.50005 4.375-1.625 10.875-0.87505 3.875-1.7709 6.5208-2.6875 7.9375-0.41672 0.91667-1.1667 1.3333-2.25 1.25-1.1667-0.37499-2.3334-0.70833-3.5-1-0.79171-0.29166-1.2709-0.35416-1.4375-0.1875-0.16671 0.25001 0.10412 0.64584 0.8125 1.1875 2.5416 3.2917 3.8958 5.4375 4.0625 6.4375 0.16662 0.41667 0.47912 0.66667 0.9375 0.75 0.74995 0.16666 1.875-0.47917 3.375-1.9375 1.4166-1.4167 2.375-3.0417 2.875-4.875 2.6666-13.417 4.4791-20.458 5.4375-21.125 0.41661-0.29164 0.60411-0.60414 0.5625-0.9375 0.04161-0.37497-0.66673-1.125-2.125-2.25-2.0001-1.25-3.6459-1.6666-4.9375-1.25-1 0.12503-2.0417 0.25003-3.125 0.375-3.375 3e-5 -7.3542 0.45836-11.938 1.375 0.04163-1.875 0.08329-3.6458 0.125-5.3125 1.5416-0.41663 3.1458-0.79163 4.8125-1.125 1.375-0.37496 2.1458-0.6458 2.3125-0.8125 0.29162-0.29163 0.37495-0.5833 0.25-0.875-0.29171-0.37496-0.91671-0.66663-1.875-0.875-1-0.16663-2.8125 0.25004-5.4375 1.25m-3.0625 0.8125c-1.75 0.2917-3.5625 0.58337-5.4375 0.875-1.1667 0.1667-1.3334 0.5417-0.5 1.125 1.125 0.5417 3.0416 0.62503 5.75 0.25 0.04163 3e-5 0.10413 3e-5 0.1875 0 0.04163 1.5417 0.06246 3.2292 0.0625 5.0625-3.0417 0.37503-5.5834 0.83336-7.625 1.375-1.5417 0.16669-2.3542-0.31247-2.4375-1.4375-0.16669-1.1666-0.12503-4.875 0.125-11.125 0.41664-5.1666 0.79164-8 1.125-8.5 0.16664-0.29162 0.31247-0.60412 0.4375-0.9375 0.66664 0.16672 2.9583 0.06255 6.875-0.3125 0.12496-0.04162 0.29163-0.06245 0.5-0.0625 0.41663 0.75005 0.72913 2.7709 0.9375 6.0625-1.4167 0.29171-2.9792 0.54171-4.6875 0.75-1.1667 0.25004-1.3334 0.64588-0.5 1.1875 1.375 0.75004 3.0208 0.87504 4.9375 0.375 0.04163-0.04163 0.12496-0.04163 0.25 0-4e-5 1.4167-4e-5 3.1875 0 5.3125m-20.562 15.188c-0.41668 2.4167-1.0834 4.7917-2 7.125-0.50001 1.5417-0.20835 2.9792 0.875 4.3125 0.49998 0.66668 1.125 0.62501 1.875-0.125 0.79165-0.91666 1.3333-2.1042 1.625-3.5625 0.29165-1.6666 0.31248-3.1666 0.0625-4.5-0.04168-1.4166-0.35418-2.625-0.9375-3.625-0.29168-0.29165-0.56252-0.43748-0.8125-0.4375-0.37502 0.16669-0.60418 0.43752-0.6875 0.8125m7.5 2.875c0.41664 2.5 0.97914 4.1875 1.6875 5.0625 0.37497 0.37501 0.81247 0.43751 1.3125 0.1875 0.41664-0.24999 0.74997-0.64582 1-1.1875 0.29164-1.625-0.43753-3.3542-2.1875-5.1875-0.04169-0.12498-0.10419-0.20831-0.1875-0.25-0.41669-0.41665-0.79169-0.66665-1.125-0.75-0.16669-0.04165-0.33336 0.12502-0.5 0.5-0.16669 0.37502-0.16669 0.91669 0 1.625m7.4375-1.4375c0.74997 2.0417 1.625 3.5834 2.625 4.625 0.49997 0.29168 0.97913 0.25001 1.4375-0.125 0.37496-0.37498 0.60413-0.85415 0.6875-1.4375 0.04163-0.91665-0.14587-1.7083-0.5625-2.375-0.62503-0.87498-1.5834-1.6875-2.875-2.4375-0.50003-0.37498-0.93753-0.54164-1.3125-0.5-0.25003-0.04164-0.39586 0.16669-0.4375 0.625-0.0417 0.41669 0.10414 0.95835 0.4375 1.625m8.875-2.0625c1.1666 2.625 2.3541 4.4584 3.5625 5.5 0.54162 0.29168 1.0625 0.22918 1.5625-0.1875 0.41662-0.41665 0.66662-0.97915 0.75-1.6875-5e-5 -1.75-1.4792-3.6042-4.4375-5.5625l-0.0625-0.0625c-0.54171-0.37498-1.0417-0.54164-1.5-0.5-0.25004 2e-5 -0.39587 0.25002-0.4375 0.75-0.04171 0.41669 0.14579 1 0.5625 1.75" fill="#000"/>
        </g>
    </g>
</svg>
