<?xml version="1.0" encoding="UTF-8"?>
<svg version="1.1" viewBox="0 0 101 101" xmlns="http://www.w3.org/2000/svg">
    <g fill="none" fill-rule="evenodd">
        <g transform="translate(3 -257)" fill-rule="nonzero">
            <g transform="translate(0 260)">
                <path d="m95.483 47.686c0 26.242-21.273 47.515-47.515 47.515s-47.515-21.273-47.515-47.515 21.273-47.515 47.515-47.515 47.515 21.273 47.515 47.515z" fill="#FFEDA2" stroke="#c00" stroke-width="5"/>
                <g transform="translate(15.51 19.819)" fill="#c00">
                    <path d="m39.592 17.217c0.04163-1.4166 0.10413-2.7916 0.1875-4.125 3.1666-1.0416 4.8541-1.6458 5.0625-1.8125 0.24996-0.29162 0.29162-0.58329 0.125-0.875-0.29171-0.37496-0.93754-0.62496-1.9375-0.75-1.0417-0.04162-2.0417 0.18754-3 0.6875-0.12504 0.04171-0.18754 0.08338-0.1875 0.125-4e-5 -0.49996 0.06246-1.2083 0.1875-2.125 0.29163-0.79162 0.22913-1.375-0.1875-1.75-0.54171-0.54162-1.1042-0.99995-1.6875-1.375 5.75-1.5416 8.7708-2.4583 9.0625-2.75 0.29162-0.29161 0.35412-0.60411 0.1875-0.9375-0.29171-0.41661-1-0.74995-2.125-1-1.1667-0.16661-2.2917 0.02089-3.375 0.5625-1.75 0.66672-3.5625 1.2917-5.4375 1.875-2.0417 0.62505-4.3334 1.125-6.875 1.5-0.0417 5e-5 -0.06253 0.02088-0.0625 0.0625-1.125-1.125-2.3125-1.7291-3.5625-1.8125-0.50002 5e-5 -0.81252 0.20838-0.9375 0.625-0.04169 0.41672 0.10414 0.77088 0.4375 1.0625 1.625 2.5 1.9375 9.4167 0.9375 20.75-0.16669 1.375-0.35419 2.2917-0.5625 2.75-0.04169 0.25003-0.04169 0.50003 0 0.75 0.12497 0.41669 0.43747 0.81252 0.9375 1.1875 0.54164 0.41669 0.97914 0.66669 1.3125 0.75 0.41664-0.12498 0.93747-0.27081 1.5625-0.4375 0.49997-0.41664 2.4791-1.1041 5.9375-2.0625 7.75-2.25 12.479-2.8541 14.188-1.8125 0.66662 0.62503 0.33328 4.8125-1 12.562-0.87505 3.9167-1.75 6.6042-2.625 8.0625-0.29171 0.87501-0.87504 1.2917-1.75 1.25-1.1667-0.49999-2.375-0.95833-3.625-1.375-0.66671-0.37499-1.1042-0.45833-1.3125-0.25-0.16671 0.16667 0.06246 0.54167 0.6875 1.125 2.4166 3.2917 3.7083 5.4167 3.875 6.375 0.16662 0.41667 0.45829 0.64583 0.875 0.6875 0.66662 0.16667 1.7291-0.41667 3.1875-1.75 1.2916-1.2917 2.3124-3.3125 3.0625-6.0625 2.25-12.417 3.875-18.979 4.875-19.688 0.37494-0.29164 0.54161-0.58331 0.5-0.875 0.04161-0.37497-0.62506-1.0416-2-2-1.75-1.125-3.8542-1.3958-6.3125-0.8125-2.9167 3e-5 -5.75 0.45836-8.5 1.375-0.12504 3e-5 -0.25004 0.0417-0.375 0.125 0.04163-1.7916 0.08329-3.5 0.125-5.125 3-0.87496 4.6041-1.4166 4.8125-1.625 0.29162-0.29163 0.33329-0.5833 0.125-0.875-0.29171-0.37496-0.91671-0.62496-1.875-0.75-1.0417-0.12496-2.0209 0.06254-2.9375 0.5625m-3 1.1875c-0.0417 4e-5 -0.1042 0.02087-0.1875 0.0625-1.1667 0.37504-2.4792 0.68754-3.9375 0.9375-1.1667 0.2917-1.3125 0.68753-0.4375 1.1875 1.1666 0.50003 2.6875 0.58337 4.5625 0.25-4e-5 1.4167 0.0208 2.9792 0.0625 4.6875-1.9167 0.2917-3.4792 0.68753-4.6875 1.1875-1.2917 0.41669-2.0625 0.14586-2.3125-0.8125-0.50003-2.375-0.52086-7.1458-0.0625-14.312 0.12497-2 0.43747-3.75 0.9375-5.25 1.75 5e-5 3.4583-0.16662 5.125-0.5 0.54163 1.4167 0.8333 3.375 0.875 5.875-1.125 0.29171-2.3334 0.60421-3.625 0.9375-1.1667 0.29171-1.2917 0.68754-0.375 1.1875 1.0416 0.41671 2.3958 0.52087 4.0625 0.3125-4e-5 1.1667-4e-5 2.5834 0 4.25m-15.438 17.438c-0.23432 3.5485-2.1154 6.7093 0.1875 9.75 0.54165 0.54167 1.1041 0.43751 1.6875-0.3125 1.25-2 1.5-4.2292 0.75-6.6875-0.25002-1.2916-0.66669-2.3542-1.25-3.1875-0.29169-0.24998-0.56252-0.35415-0.8125-0.3125-0.29169 0.16669-0.47919 0.41669-0.5625 0.75m6.4375 0.6875c1.125 2.5 1.9375 3.8542 2.4375 4.0625 0.37497 0.12501 0.7083 0.02085 1-0.3125 0.37497-0.41665 0.60414-1.1458 0.6875-2.1875 0.04164-0.66665-0.2917-1.3542-1-2.0625-0.75003-0.66665-1.5625-1.2916-2.4375-1.875-0.41669-0.29165-0.75003-0.43748-1-0.4375-0.25003 0.04169-0.41669 0.27085-0.5 0.6875-0.04169 0.41669 0.22914 1.125 0.8125 2.125m6.625-2.3125c1.7916 2.125 2.9583 3.25 3.5 3.375 0.29163 0.04168 0.56246-0.14582 0.8125-0.5625 0.24996-0.41665 0.29163-1.125 0.125-2.125-0.1667-0.99998-1.625-2.0208-4.375-3.0625-0.50003-0.16664-0.8542-0.20831-1.0625-0.125-0.1667 0.04169-0.25003 0.29169-0.25 0.75 0.04163 0.37502 0.4583 0.95835 1.25 1.75m7.1875-2.375c0.91662 1 1.8541 2.0834 2.8125 3.25 0.41662 0.54169 0.93746 0.83335 1.5625 0.875 0.41662 0.04169 0.74995-0.18748 1-0.6875 0.24995-0.54165 0.27079-1.3958 0.0625-2.5625-0.29171-1.25-2.0834-2.4583-5.375-3.625-0.54171-0.16664-0.95837-0.22914-1.25-0.1875-0.16671 0.12503-0.27087 0.43753-0.3125 0.9375 0.04163 0.41669 0.54163 1.0834 1.5 2"/>
                    <path d="m12.4 21.229c1.375 2.9167 1.5833 8.2292 0.625 15.938-0.29168 2.25-0.75001 4.5208-1.375 6.8125-0.62501 2.0417-0.16668 4.0625 1.375 6.0625 0.04166 0.125 0.14582 0.25 0.3125 0.375 0.79166 0.66667 1.4375 0.41667 1.9375-0.75 0.62499-1.75 0.93749-3.625 0.9375-5.625 0.12499-10.875 0.37499-17.521 0.75-19.938 0.29165-1.1666 0.22915-1.9791-0.1875-2.4375-0.75001-0.91663-1.4167-1.6666-2-2.25-0.16668-0.24997-0.39585-0.43747-0.6875-0.5625 1.7916-2.625 3.9583-6.4375 6.5-11.438 0.87498-1.625 1.2916-2.5 1.25-2.625-0.12502-0.41662-0.52085-0.89578-1.1875-1.4375-0.75002-0.54162-1.5625-0.89578-2.4375-1.0625-1-0.24995-1.75-0.29162-2.25-0.125-0.41668 0.16672-0.54168 0.52088-0.375 1.0625 0.99999 3.75-1.0834 9.4375-6.25 17.062-0.12501 0.12503-0.22917 0.27087-0.3125 0.4375-1.5417 2.1667-4.2708 5.375-8.1875 9.625-0.375 0.29169-0.29166 0.45835 0.25 0.5 1.6667-0.24998 4.6875-2.5416 9.0625-6.875 0.66666-0.87497 1.4167-1.7916 2.25-2.75"/>
                </g>
            </g>
        </g>
    </g>
</svg>
