<?xml version="1.0" encoding="UTF-8"?>
<svg version="1.1" viewBox="0 0 101 101" xmlns="http://www.w3.org/2000/svg">
    <g fill="none" fill-rule="evenodd">
        <g transform="translate(3 -517)" fill-rule="nonzero">
            <g transform="translate(0 519)">
                <path d="m95.483 48.295c0 26.242-21.273 47.515-47.515 47.515s-47.515-21.273-47.515-47.515 21.273-47.515 47.515-47.515 47.515 21.273 47.515 47.515z" fill="#FFEDA2" stroke="#c00" stroke-width="5"/>
                <g transform="translate(13.75 16.971)" fill="#c00">
                    <path d="m34.895 42.544c-0.00545 7.375 0.01273 12.041 0.48002 15.629 0.11998 0.74999 0.33999 1.375 0.66003 1.875 0.63999 0.66667 1.14 0.52083 1.5001-0.4375 0.63999-1.625 1.0109-7.1578 0.97095-17.449 3.5147-0.6755 10.069-0.82133 20.87-0.86301 0.99998 0.04168 1.62-0.16666 1.8601-0.625 0.27995-0.62498 0.01994-1.2916-0.78003-2-3.1602-2.5-5.6603-3.2708-7.5003-2.3125-3.8402 0.66669-8.6804 1.4584-14.521 2.375-0.04003-1.5416-0.06003-3.1875-0.05999-4.9375 1.8-0.24998 3.9001-0.43748 6.3002-0.5625-4e-5 0.12502 0.03997 0.27085 0.12001 0.4375 0.15996 0.75002 0.53998 1.1042 1.14 1.0625 0.63999-0.04164 1.14-0.39581 1.5001-1.0625 0.63999-0.74998 1.54-2.9792 2.7001-6.6875 0.83999-2.4166 2.08-4.2916 3.7202-5.625 0.87998-0.74995 0.97999-1.5 0.30001-2.25-0.76008-0.79163-2.2801-1.8541-4.5602-3.1875-0.72008-0.54163-2.4601-0.43746-5.2202 0.3125-2.0801 0.12504-4.1002 0.4167-6.0602 0.875 0.03997-1.7916 0.09997-3.375 0.18001-4.75 2.32-0.49996 4.7002-0.95829 7.1403-1.375 2.08-0.49995 3.2601-0.87495 3.5401-1.125 0.39997-0.29163 0.49997-0.6458 0.30001-1.0625-0.28005-0.49995-1.0201-0.91661-2.2201-1.25-1.2401-0.29161-2.4601-0.20828-3.6602 0.25001-1.6801 0.54171-3.3602 1.0626-5.0402 1.5625-3e-5 -0.04162 0.01997-0.08329 0.06-0.12501 0.03997-1.4999 0.43999-2.8958 1.2-4.1875 0.27997-0.74996-0.02004-1.4583-0.90004-2.125-1.0801-0.87495-2.5401-1.5416-4.3802-2-0.84006-0.24995-1.5401-0.04161-2.1001 0.62499-0.40005 0.37507-0.32004 0.8334 0.24001 1.375 1.24 1.125 1.92 2.4792 2.0401 4.0625-3e-5 0.91671 0.01997 2 0.06 3.25-2.4401 0.41671-4.9802 0.75004-7.6203 0.99999-1.4801 0.16672-1.7001 0.64588-0.66002 1.4375 1.56 1 3.8001 1.2084 6.7203 0.62499 0.47999-0.12495 1-0.18745 1.5601-0.18749-3e-5 1.375-3e-5 2.9167 0 4.625-1.2001 0.16671-2.3001 0.37504-3.3001 0.62501-2.8001 0.5417-5.1602 0.93753-7.0803 1.1875-0.96005-0.49996-1.9001-0.81247-2.8201-0.9375-0.28003-0.04163-0.54004 0.0417-0.78003 0.25-0.28003 0.2917-0.20003 0.6667 0.24001 1.125 1.32 1.625 2.4801 5.1667 3.4801 10.625 0.27999 2.75 1.26 4.6458 2.9401 5.6875 0.03998 1e-5 0.09998 0.02085 0.18001 0.06249 0.6 0.12503 0.94001-0.2708 1.02-1.1875 0.28 3e-5 0.58-0.02081 0.90004-0.0625 1.36-0.37498 3.1601-0.66663 5.4002-0.87499-2e-5 1.7917-0.02002 3.4792-0.06 5.0625-6.8738 1.3213-6.1915 1.4331-14.081 2.5625-1.0801 0.04168-1.2201 0.54167-0.42002 1.5 1.6801 1.625 2.6577 1.8686 4.9142 1.256m13.007-17.944c1.48-0.29163 2.9401-0.49997 4.3802-0.62499 0.88-0.12497 1.18-0.4583 0.90004-1-0.40005-0.62496-1.1201-1.0625-2.1601-1.3125-0.76007-0.16663-1.8001-0.08329-3.1201 0.25001-4e-5 -1.5416-4e-5 -3.0208 0-4.4375 5.1602-0.87496 8.2003-1.0625 9.1204-0.5625 0.39998 0.2917 0.45997 1.1667 0.18001 2.625-1.2001 5.375-2.0801 8.6458-2.6401 9.8125-1.2001-0.91664-3.4202-0.93748-6.6603-0.0625-4e-5 -1.6666-4e-5 -3.2291 0-4.6875m-3.4201-1.8125c-1.7201 0.41669-3.3202 0.79169-4.8002 1.125-0.64006 0.16669-0.58005 0.56252 0.18 1.1875 0.39999 0.2917 1.02 0.39586 1.8601 0.3125 0.88-0.16664 1.8-0.29164 2.7601-0.375-3e-5 1.625 0.01998 3.2709 0.06 4.9375-2.3201 0.41669-4.4802 0.75002-6.4802 1-0.16003-0.99998-0.42004-2.0208-0.78003-3.0625-0.76005-4.375-1.2201-7.0416-1.3801-8 2.0401-0.66664 4.8802-1.2916 8.5204-1.875-3e-5 1.4167 0.01997 3 0.05999 4.75"/>
                    <g transform="translate(.75229 3.8807)">
                        <path d="m12.4 19.229c1.375 2.9167 1.5833 8.2292 0.625 15.938-0.29168 2.25-0.75001 4.5208-1.375 6.8125-0.62501 2.0417-0.16668 4.0625 1.375 6.0625 0.04166 0.125 0.14582 0.25 0.3125 0.375 0.79166 0.66667 1.4375 0.41667 1.9375-0.75 0.62499-1.75 0.93749-3.625 0.9375-5.625 0.12499-10.875 0.37499-17.521 0.75-19.938 0.29165-1.1666 0.22915-1.9791-0.1875-2.4375-0.75001-0.91663-1.4167-1.6666-2-2.25-0.16668-0.24997-0.39585-0.43747-0.6875-0.5625 1.7916-2.625 3.9583-6.4375 6.5-11.438 0.87498-1.625 1.2916-2.5 1.25-2.625-0.12502-0.41662-0.52085-0.89578-1.1875-1.4375-0.75002-0.54162-1.5625-0.89578-2.4375-1.0625-1-0.24995-1.75-0.29162-2.25-0.125-0.41668 0.16672-0.54168 0.52088-0.375 1.0625 0.99999 3.75-1.0834 9.4375-6.25 17.062-0.12501 0.12503-0.22917 0.27087-0.3125 0.4375-1.5417 2.1667-4.2708 5.375-8.1875 9.625-0.375 0.29169-0.29166 0.45835 0.25 0.5 1.6667-0.24998 4.6875-2.5416 9.0625-6.875 0.66666-0.87497 1.4167-1.7916 2.25-2.75"/>
                    </g>
                </g>
                <path d="m95.483 48.295c0 26.242-21.273 47.515-47.515 47.515s-47.515-21.273-47.515-47.515 21.273-47.515 47.515-47.515 47.515 21.273 47.515 47.515z" fill="#FFEDA2" stroke="#c00" stroke-width="5"/>
                <g transform="translate(13.75 16.971)" fill="#c00">
                    <path d="m34.895 42.544c-0.00545 7.375 0.01273 12.041 0.48002 15.629 0.11998 0.74999 0.33999 1.375 0.66003 1.875 0.63999 0.66667 1.14 0.52083 1.5001-0.4375 0.63999-1.625 1.0109-7.1578 0.97095-17.449 3.5147-0.6755 10.069-0.82133 20.87-0.86301 0.99998 0.04168 1.62-0.16666 1.8601-0.625 0.27995-0.62498 0.01994-1.2916-0.78003-2-3.1602-2.5-5.6603-3.2708-7.5003-2.3125-3.8402 0.66669-8.6804 1.4584-14.521 2.375-0.04003-1.5416-0.06003-3.1875-0.05999-4.9375 1.8-0.24998 3.9001-0.43748 6.3002-0.5625-4e-5 0.12502 0.03997 0.27085 0.12001 0.4375 0.15996 0.75002 0.53998 1.1042 1.14 1.0625 0.63999-0.04164 1.14-0.39581 1.5001-1.0625 0.63999-0.74998 1.54-2.9792 2.7001-6.6875 0.83999-2.4166 2.08-4.2916 3.7202-5.625 0.87998-0.74995 0.97999-1.5 0.30001-2.25-0.76008-0.79163-2.2801-1.8541-4.5602-3.1875-0.72008-0.54163-2.4601-0.43746-5.2202 0.3125-2.0801 0.12504-4.1002 0.4167-6.0602 0.875 0.03997-1.7916 0.09997-3.375 0.18001-4.75 2.32-0.49996 4.7002-0.95829 7.1403-1.375 2.08-0.49995 3.2601-0.87495 3.5401-1.125 0.39997-0.29163 0.49997-0.6458 0.30001-1.0625-0.28005-0.49995-1.0201-0.91661-2.2201-1.25-1.2401-0.29161-2.4601-0.20828-3.6602 0.25001-1.6801 0.54171-3.3602 1.0626-5.0402 1.5625-3e-5 -0.04162 0.01997-0.08329 0.06-0.12501 0.03997-1.4999 0.43999-2.8958 1.2-4.1875 0.27997-0.74996-0.02004-1.4583-0.90004-2.125-1.0801-0.87495-2.5401-1.5416-4.3802-2-0.84006-0.24995-1.5401-0.04161-2.1001 0.62499-0.40005 0.37507-0.32004 0.8334 0.24001 1.375 1.24 1.125 1.92 2.4792 2.0401 4.0625-3e-5 0.91671 0.01997 2 0.06 3.25-2.4401 0.41671-4.9802 0.75004-7.6203 0.99999-1.4801 0.16672-1.7001 0.64588-0.66002 1.4375 1.56 1 3.8001 1.2084 6.7203 0.62499 0.47999-0.12495 1-0.18745 1.5601-0.18749-3e-5 1.375-3e-5 2.9167 0 4.625-1.2001 0.16671-2.3001 0.37504-3.3001 0.62501-2.8001 0.5417-5.1602 0.93753-7.0803 1.1875-0.96005-0.49996-1.9001-0.81247-2.8201-0.9375-0.28003-0.04163-0.54004 0.0417-0.78003 0.25-0.28003 0.2917-0.20003 0.6667 0.24001 1.125 1.32 1.625 2.4801 5.1667 3.4801 10.625 0.27999 2.75 1.26 4.6458 2.9401 5.6875 0.03998 1e-5 0.09998 0.02085 0.18001 0.06249 0.6 0.12503 0.94001-0.2708 1.02-1.1875 0.28 3e-5 0.58-0.02081 0.90004-0.0625 1.36-0.37498 3.1601-0.66663 5.4002-0.87499-2e-5 1.7917-0.02002 3.4792-0.06 5.0625-6.8738 1.3213-6.1915 1.4331-14.081 2.5625-1.0801 0.04168-1.2201 0.54167-0.42002 1.5 1.6801 1.625 2.6577 1.8686 4.9142 1.256m13.007-17.944c1.48-0.29163 2.9401-0.49997 4.3802-0.62499 0.88-0.12497 1.18-0.4583 0.90004-1-0.40005-0.62496-1.1201-1.0625-2.1601-1.3125-0.76007-0.16663-1.8001-0.08329-3.1201 0.25001-4e-5 -1.5416-4e-5 -3.0208 0-4.4375 5.1602-0.87496 8.2003-1.0625 9.1204-0.5625 0.39998 0.2917 0.45997 1.1667 0.18001 2.625-1.2001 5.375-2.0801 8.6458-2.6401 9.8125-1.2001-0.91664-3.4202-0.93748-6.6603-0.0625-4e-5 -1.6666-4e-5 -3.2291 0-4.6875m-3.4201-1.8125c-1.7201 0.41669-3.3202 0.79169-4.8002 1.125-0.64006 0.16669-0.58005 0.56252 0.18 1.1875 0.39999 0.2917 1.02 0.39586 1.8601 0.3125 0.88-0.16664 1.8-0.29164 2.7601-0.375-3e-5 1.625 0.01998 3.2709 0.06 4.9375-2.3201 0.41669-4.4802 0.75002-6.4802 1-0.16003-0.99998-0.42004-2.0208-0.78003-3.0625-0.76005-4.375-1.2201-7.0416-1.3801-8 2.0401-0.66664 4.8802-1.2916 8.5204-1.875-3e-5 1.4167 0.01997 3 0.05999 4.75"/>
                    <g transform="translate(.75229 3.8807)">
                        <path d="m12.4 19.229c1.375 2.9167 1.5833 8.2292 0.625 15.938-0.29168 2.25-0.75001 4.5208-1.375 6.8125-0.62501 2.0417-0.16668 4.0625 1.375 6.0625 0.04166 0.125 0.14582 0.25 0.3125 0.375 0.79166 0.66667 1.4375 0.41667 1.9375-0.75 0.62499-1.75 0.93749-3.625 0.9375-5.625 0.12499-10.875 0.37499-17.521 0.75-19.938 0.29165-1.1666 0.22915-1.9791-0.1875-2.4375-0.75001-0.91663-1.4167-1.6666-2-2.25-0.16668-0.24997-0.39585-0.43747-0.6875-0.5625 1.7916-2.625 3.9583-6.4375 6.5-11.438 0.87498-1.625 1.2916-2.5 1.25-2.625-0.12502-0.41662-0.52085-0.89578-1.1875-1.4375-0.75002-0.54162-1.5625-0.89578-2.4375-1.0625-1-0.24995-1.75-0.29162-2.25-0.125-0.41668 0.16672-0.54168 0.52088-0.375 1.0625 0.99999 3.75-1.0834 9.4375-6.25 17.062-0.12501 0.12503-0.22917 0.27087-0.3125 0.4375-1.5417 2.1667-4.2708 5.375-8.1875 9.625-0.375 0.29169-0.29166 0.45835 0.25 0.5 1.6667-0.24998 4.6875-2.5416 9.0625-6.875 0.66666-0.87497 1.4167-1.7916 2.25-2.75"/>
                    </g>
                </g>
            </g>
        </g>
    </g>
</svg>
