<?xml version="1.0" encoding="UTF-8"?>
<svg version="1.1" viewBox="0 0 101 101" xmlns="http://www.w3.org/2000/svg">
  <g fill="none" fill-rule="evenodd">
    <g transform="translate(3 -776)" fill-rule="nonzero">
      <path d="m95.483 826.9c0 26.242-21.273 47.515-47.515 47.515s-47.515-21.273-47.515-47.515 21.273-47.515 47.515-47.515 47.515 21.273 47.515 47.515z" fill="#FFEDA2" stroke="#c00" stroke-width="5"/>
      <path d="m36.561 830.62c-4.9167 0.41669-10.042 0.95835-15.375 1.625-0.91667 0.04168-1.0417 0.47918-0.375 1.3125 0.66666 0.66668 1.3958 1.125 2.1875 1.375 0.99999 0.25002 1.8542 0.27085 2.5625 0.0625 10.375-2.625 24.396-3.9583 42.062-4 1.0416 2e-5 2.0833 0.02085 3.125 0.0625 0.91661 0.04169 1.4999-0.14581 1.75-0.5625 0.24994-0.54165-6e-5 -1.125-0.75-1.75-2.4167-1.875-4.4792-2.625-6.1875-2.25-3.6667 0.66669-8.2917 1.4375-13.875 2.3125 1.375-5 2.3333-7.9791 2.875-8.9375 0.16663-0.41664-0.08337-0.9583-0.75-1.625-0.41671-0.29163-0.81254-0.56247-1.1875-0.8125 6.125-1.25 9.3124-1.9791 9.5625-2.1875 0.41662-0.37496 0.52078-0.74996 0.3125-1.125-0.29171-0.54163-1.125-1.0208-2.5-1.4375-1.125-0.24996-3.9584 0.25004-8.5 1.5-4.375 1.0417-8.6667 1.7917-12.875 2.25-0.04169-2.875-0.02086-4.7083 0.0625-5.5 0.04164-0.54163-0.02086-1.0416-0.1875-1.5 5.875-1.375 10.229-2.6666 13.062-3.875 2.1666-0.74995 4.1875-1.25 6.0625-1.5 0.79162 5e-5 1.2916-0.18745 1.5-0.5625 0.16662-0.49995-4e-5 -1.0416-0.5-1.625-0.91671-0.79162-2.4167-1.6458-4.5-2.5625-0.66671-0.41662-1.3334-0.60411-2-0.5625-0.37504 0.16672-0.58337 0.50005-0.625 1-0.1667 1.6667-4.8125 4.4792-13.938 8.4375-1.1667-0.91662-2.4584-1.5416-3.875-1.875-0.75002-0.24996-1.3334-0.20829-1.75 0.125-0.41668 0.29171-0.43752 0.85421-0.0625 1.6875 1.1666 1.9167 2.0208 3.9375 2.5625 6.0625 0.41665 2.1667 1.125 7.6459 2.125 16.438m9.0625-1.0625c-1.9167 0.16669-3.8959 0.41669-5.9375 0.75-0.41669-4.5416-0.72919-8.375-0.9375-11.5 1.7916 0.25003 4.2083 0.1667 7.25-0.25 0.99997-0.16663 2.0833-0.35413 3.25-0.5625 0.49996 1.125 0.43746 4.8334-0.1875 11.125-1.1667 0.12502-2.3125 0.27085-3.4375 0.4375m-9.125 8.375c-3.1667 3.1667-7.2917 6.4792-12.375 9.9375-0.62501 0.54167-0.58334 0.95833 0.125 1.25 2 0 5.9375-1.8125 11.812-5.4375 2.5-1.875 4.2291-2.9167 5.1875-3.125 0.91664-0.29166 1.2708-0.87499 1.0625-1.75-0.29169-0.74999-1.1875-1.8333-2.6875-3.25-0.50002-0.49998-1.0209-0.70832-1.5625-0.625-0.75002 0.16668-1.0417 0.58335-0.875 1.25 0.16664 0.66668-0.06252 1.25-0.6875 1.75m14.688-0.6875c3.1666 3.0417 6.5833 6.7292 10.25 11.062 0.74995 1 1.5 1.625 2.25 1.875 0.41662 0.04167 0.81245-0.16667 1.1875-0.625 0.66662-0.625 0.72912-2.0208 0.1875-4.1875-0.62505-2.875-5.1876-6.3333-13.688-10.375-0.4167-0.29165-0.68754-0.12498-0.8125 0.5-0.0417 0.66668 0.16663 1.25 0.625 1.75" fill="#c00"/>
    </g>
  </g>
</svg>
