<?xml version="1.0" encoding="UTF-8"?>
<svg version="1.1" viewBox="0 0 101 101" xmlns="http://www.w3.org/2000/svg">
    <g fill="none" fill-rule="evenodd">
        <g transform="translate(-283 -647)" fill-rule="nonzero">
            <path d="m381.48 697.1c0 26.242-21.273 47.515-47.515 47.515s-47.515-21.273-47.515-47.515 21.273-47.515 47.515-47.515 47.515 21.273 47.515 47.515z" fill="#FFEDA2" stroke="#000" stroke-width="5"/>
            <path d="m316.37 706.57c0.37498 0.04168 0.79165 1e-5 1.25-0.125 1.625-0.49999 4.1875-1.0208 7.6875-1.5625 0.41664-0.04166 0.64581-0.27082 0.6875-0.6875-3e-5 -0.29166-0.52086-0.70832-1.5625-1.25 0.79164-3 1.6458-4.9375 2.5625-5.8125 0.87497-0.99998 0.85414-1.7708-0.0625-2.3125-0.75003-0.41665-1.6459-0.97915-2.6875-1.6875-0.75003-0.49998-1.9792-0.20831-3.6875 0.875-1.625 0.62502-3.4167 1.2084-5.375 1.75 1.125-2.375 2.4166-5.4166 3.875-9.125 0.54164-1.5 0.83331-2.2916 0.875-2.375-0.41669-0.74997-1.0208-1.2083-1.8125-1.375 6.625-1.875 10.062-2.9166 10.312-3.125 0.37497-0.37496 0.43747-0.72913 0.1875-1.0625-0.2917-0.49996-1.0834-0.85413-2.375-1.0625-1.2917-0.16663-2.5625 0.0417-3.8125 0.625-1.6667 0.6667-3.4167 1.2917-5.25 1.875-2.0417 0.5417-4.25 1-6.625 1.375-1.5417 0.37503-1.7292 0.87503-0.5625 1.5 1.125 0.62503 2.7083 0.87503 4.75 0.75 0.62498 2.125-0.12502 5.875-2.25 11.25-0.12501-0.04165-0.27085-0.08331-0.4375-0.125-0.50001-0.12498-0.79168-0.08331-0.875 0.125-0.25001 0.16669-0.22918 0.58335 0.0625 1.25 0.04165 0.16669 0.14582 0.43752 0.3125 0.8125-2.75 4.5-5.5 8.5625-8.25 12.188-0.29167 0.25001-0.20834 0.39584 0.25 0.4375 2.25-0.74999 5.2083-3.75 8.875-9-1e-5 -0.12499 0.06249-0.22915 0.1875-0.3125 0.41665 1.75 0.81248 3.8125 1.1875 6.1875 0.04165 1.2917 0.43748 2.3542 1.1875 3.1875 0.62498 0.875 1.0416 1 1.25 0.375 0.29165-0.79166 0.33331-1.9792 0.125-3.5625m4.625-3.6875c-1.7917 0.66668-3.4375 1.2083-4.9375 1.625-0.54168-3.375-0.87502-5.6875-1-6.9375 0.24998-0.04165 0.54165-0.12498 0.875-0.25 1.6666-0.41665 3.25-0.81248 4.75-1.1875 0.99998-0.24998 1.6041-0.18748 1.8125 0.1875 0.29164 0.25002 0.27081 1.0417-0.0625 2.375-0.29169 1.25-0.62502 2.6042-1 4.0625-0.16669 1e-5 -0.31252 0.04168-0.4375 0.125m12.812-19.75c0.24996 0.1667 0.60413 0.3542 1.0625 0.5625 0.91663 0.5417 1.75 0.68753 2.5 0.4375 7.875-2.25 12.062-3.0416 12.562-2.375 0.41661 0.5417 0.56245 1.6042 0.4375 3.1875-0.16672 4.25-0.72922 7.3334-1.6875 9.25-0.66672 1.2917-1.5626 1.875-2.6875 1.75-0.50005 2e-5 -0.97921-0.02081-1.4375-0.0625-1.0417-0.29165-1.1876 0.04169-0.4375 1 1.1666 1.5 2.0208 2.7917 2.5625 3.875 0.79162 0.79168 1.5624 0.83335 2.3125 0.125 2.375-1.75 3.9583-5.6875 4.75-11.812 0.16661-4 0.68744-6.5208 1.5625-7.5625 0.49994-0.54163 0.60411-1.0208 0.3125-1.4375-0.37506-0.41663-1.6251-1.0625-3.75-1.9375-0.79172-0.29163-1.5834-0.16663-2.375 0.375-0.79172 0.50004-2.7709 1.1459-5.9375 1.9375-3.1667 0.7917-6.1042 1.3125-8.8125 1.5625 1.5416-1.9166 3.2083-4.2916 5-7.125 0.74996-1.4166 1.4583-2.4583 2.125-3.125 0.41662-0.49996 0.49996-1.0208 0.25-1.5625-0.16671-0.54162-0.87504-1.2708-2.125-2.1875-1.1667-0.74995-2.1459-1.1041-2.9375-1.0625-0.79171 0.12505-1 0.64588-0.625 1.5625 0.49996 0.91671 0.58329 1.7709 0.25 2.5625-0.9167 2.75-2.1042 5.4167-3.5625 8-1.4167 2.5-3.125 5.125-5.125 7.875-0.4167 0.41669-0.6667 0.79169-0.75 1.125-0.12503 0.41669 0.10414 0.58336 0.6875 0.5 1.0416-0.24997 3-2.0625 5.875-5.4375m-1.125 8.0625c-0.4167-0.37498-0.95837-0.68748-1.625-0.9375-0.5417-0.16664-0.95837-0.14581-1.25 0.0625-0.2917 0.16669-0.33337 0.60419-0.125 1.3125 0.49997 1.5417 0.68747 3.0417 0.5625 4.5-0.62503 8.625-0.56253 14.146 0.1875 16.562 0.16663 1.25 0.85413 2.3958 2.0625 3.4375 3.75 3.125 10.083 4.1042 19 2.9375 0.79161-0.16667 1.6458-0.35417 2.5625-0.5625 2.1666-0.625 4.3124-1.6667 6.4375-3.125 0.87494-0.66667 1.0208-1.5625 0.4375-2.6875-0.54173-0.875-1.2084-2.7083-2-5.5-0.04173-0.66666-0.20839-1.125-0.5-1.375-0.25006-0.16666-0.47923 0.14584-0.6875 0.9375-1.2501 3.0417-2.2292 5.0208-2.9375 5.9375-0.75006 0.91667-2.2292 1.6667-4.4375 2.25-5.125 1.25-9.7917 1.0417-14-0.625-1.6667-0.79166-2.7084-1.7083-3.125-2.75-1-2.125-1.25-5.6875-0.75-10.688 0.54163 0.25001 1.1666 0.31251 1.875 0.1875 1.625-0.37499 4.1666-0.72915 7.625-1.0625 0.41662-0.04165 0.62496-0.24998 0.625-0.625-4e-5 -0.29165-0.43754-0.70832-1.3125-1.25 0.79162-2.875 1.625-4.75 2.5-5.625 0.79162-0.91664 0.79162-1.6458 0-2.1875-0.66671-0.41664-1.5209-0.95831-2.5625-1.625-0.66671-0.37497-1.3542-0.35414-2.0625 0.0625-0.87504 0.54169-1.8959 1.0209-3.0625 1.4375-1.0417 0.29169-2.1875 0.62502-3.4375 1m0.875 2.0625c0.04163-0.16664 0.06246-0.35414 0.0625-0.5625 0.12496-0.12498 1.6041-0.49998 4.4375-1.125 0.87496-0.16664 1.4166-0.10414 1.625 0.1875 0.24996 0.25002 0.20829 0.97919-0.125 2.1875-0.29171 1.1667-0.64587 2.4375-1.0625 3.8125-0.12504 2e-5 -0.25004 0.04168-0.375 0.125-2.0417 0.62502-3.8542 1.1042-5.4375 1.4375 0.16663-1.9166 0.4583-3.9375 0.875-6.0625" fill="#000"/>
        </g>
    </g>
</svg>
