<?xml version="1.0" encoding="UTF-8"?>
<svg version="1.1" viewBox="0 0 101 101" xmlns="http://www.w3.org/2000/svg">
    <g fill="none" fill-rule="evenodd">
        <g transform="translate(-283 -387)" fill-rule="nonzero">
            <path d="m381.48 437.36c0 26.242-21.273 47.515-47.515 47.515s-47.515-21.273-47.515-47.515 21.273-47.515 47.515-47.515 47.515 21.273 47.515 47.515z" fill="#FFEDA2" stroke="#000" stroke-width="5"/>
            <path d="m338.03 444.64c2.75 2.875 5.5833 5.625 8.5 8.25 1.0416 0.91667 2.4374 1.3542 4.1875 1.3125 3.125-0.125 6.2708-0.625 9.4375-1.5 0.79161-0.16666 1.2291-0.35416 1.3125-0.5625 0.04161-0.29166-0.25006-0.5625-0.875-0.8125-8.2917-1.875-14.542-4.125-18.75-6.75-0.50004-0.29166-0.97921-0.60416-1.4375-0.9375-1.6667-1.1666-2.8959-2-3.6875-2.5-0.2917-0.62499-0.6042-1.0833-0.9375-1.375 4.125-2.25 7.1666-3.75 9.125-4.5 0.79162-0.12498 1.1458-0.43748 1.0625-0.9375-0.16671-0.74998-0.62504-1.5833-1.375-2.5-0.75004-0.91664-1.625-1.4791-2.625-1.6875-0.66671-0.04164-1.0209 0.35419-1.0625 1.1875 0.04163 1-1.9584 3.4792-6 7.4375-2.25-2.5416-5-4.2708-8.25-5.1875 0.87497-0.91664 1.6875-1.5 2.4375-1.75 0.29164-0.04164 0.45831-0.27081 0.5-0.6875 0.04164-0.62498-0.25003-1.2708-0.875-1.9375 3.125-0.41664 6.9375-0.79164 11.438-1.125l0.0625 0.0625c0.12496 0.66669 0.45829 1.0209 1 1.0625 0.66663-0.04164 1.7291-0.93747 3.1875-2.6875 0.87496-2.0416 2.125-3.6458 3.75-4.8125 0.87495-0.54163 0.99995-1.1875 0.375-1.9375-0.66671-0.79163-2-1.8333-4-3.125-0.66671-0.49996-1.4375-0.62496-2.3125-0.375-1.5417 0.2917-3.2709 0.58337-5.1875 0.875-1.1667 0.12504-2.2917 0.2917-3.375 0.5 4.375-3.75 7.0625-5.8541 8.0625-6.3125 0.74996-0.41662 0.89579-0.91662 0.4375-1.5-0.54171-0.54162-1.5625-1.2916-3.0625-2.25-0.6667-0.29162-1.3125-0.24995-1.9375 0.125-0.37504 0.16671-2.0417 0.68755-5 1.5625-0.75003 0.16671-1.5 0.31254-2.25 0.4375-3e-5 -0.41662-0.31253-1.125-0.9375-2.125-0.62503-0.79162-1.2084-1.2916-1.75-1.5-0.62503-0.12495-0.91669 0.18755-0.875 0.9375 0.16664 1.0417-1.1667 2.8959-4 5.5625-1.375 1.1667-2.9167 2.3542-4.625 3.5625-0.41668 0.1667-0.68752 0.3542-0.8125 0.5625-0.16668 0.2917-0.04168 0.4792 0.375 0.5625 1.875 0.25004 5.25-1.5208 10.125-5.3125 0.49997-0.41662 0.99997-0.74996 1.5-1 0.87497 0.37504 2.7916 0.31254 5.75-0.1875 0.62497-0.24996 1.0416-0.27079 1.25-0.0625 0.12497 0.12504 0.06247 0.35421-0.1875 0.6875-0.75003 1.25-2.125 3.4167-4.125 6.5-2.2917 0.2917-4.4584 0.64587-6.5 1.0625-4 0.75003-7.2917 1.125-9.875 1.125-0.54168-0.04163-0.85418 0.0417-0.9375 0.25-0.25001 0.2917-0.14585 0.7292 0.3125 1.3125 1.1666 1.6667 2.25 3.9584 3.25 6.875 0.24998 0.87502 0.68748 1.5834 1.3125 2.125 0.79165 0.79169 1.2708 0.85419 1.4375 0.1875 0.04165-0.16664 0.06248-0.35414 0.0625-0.5625 0.04165 2e-5 1.6875-0.20831 4.9375-0.625-0.04169 0.04169-0.08336 0.14586-0.125 0.3125-2.6667 3.5-7.25 6.6458-13.75 9.4375-0.29168 0.04168-0.31251 0.18751-0.0625 0.4375 2.125 0.41668 5.3333-0.49998 9.625-2.75 0.12498-0.12498 1.4583-0.97915 4-2.5625 0.12498 0.25002 0.49998 0.56252 1.125 0.9375-1.4167 3.25-5.9584 7.1458-13.625 11.688-0.75001 0.41667-0.66668 0.60417 0.25 0.5625 2.7916 0.12501 7.0625-2.1458 12.812-6.8125 1.0416-1.125 2.3541-2.2292 3.9375-3.3125-3e-5 -0.04165 0.02081-0.06248 0.0625-0.0625 0.66664 0.50002 1.2916 1.0417 1.875 1.625-3.625 5.75-9.9375 11.458-18.938 17.125-0.62501 0.41666-0.72918 0.70833-0.3125 0.875 0.37499 0.25 0.83332 0.27083 1.375 0.0625 5.625-1.4167 11.375-5.3542 17.25-11.812 1.875-2 2.7916-3.0625 2.75-3.1875 0.04163-0.04165 0.06247-0.10415 0.0625-0.1875 1.5 2.625 1.6666 6.4792 0.5 11.562-0.37503 1.5417-0.81253 2.4375-1.3125 2.6875-0.5417 0.29166-2.0834 0.27083-4.625-0.0625-2.125-0.375-3.2084-0.375-3.25 0-0.04169 0.375 0.24998 0.8125 0.875 1.3125 2.9166 2.0417 5.0416 3.7917 6.375 5.25 0.62497 0.79166 1.25 1.0625 1.875 0.8125 0.79163-0.29168 1.5833-1.0833 2.375-2.375 0.79163-1.6667 1.375-3.8333 1.75-6.5 0.41663-3.6667 0.3958-6.5833-0.0625-8.75-0.12504-0.41666-0.25004-0.85416-0.375-1.3125m1.4375-18.938c-0.62504-0.37497-1.5417-0.41664-2.75-0.125-1.6667 0.37503-3.3125 0.72919-4.9375 1.0625 0.24997-3.7083 0.37497-5.5833 0.375-5.625-0.37503-0.41663-0.75003-0.7708-1.125-1.0625 6.5-1.1666 10.333-1.4375 11.5-0.8125 0.16663 0.1667 0.16663 0.6667 0 1.5-0.91671 3-1.5625 4.7709-1.9375 5.3125-0.04171 0.12503-0.12504 0.27086-0.25 0.4375-0.25004-0.16664-0.5417-0.3958-0.875-0.6875m-19 2.6875c-0.54169-1.625-1.0417-3.6458-1.5-6.0625 2.2916-0.74997 5.4791-1.4166 9.5625-2 0.04164 0.12503 0.29164 2.3959 0.75 6.8125-3.25 0.50003-6.1875 0.91669-8.8125 1.25" fill="#000"/>
        </g>
    </g>
</svg>
