<?xml version="1.0" encoding="UTF-8"?>
<svg version="1.1" viewBox="0 0 101 101" xmlns="http://www.w3.org/2000/svg">
    <g fill="none" fill-rule="evenodd">
        <g transform="translate(-283 -517)" fill-rule="nonzero">
            <path d="m381.48 567.3c0 26.242-21.273 47.515-47.515 47.515s-47.515-21.273-47.515-47.515 21.273-47.515 47.515-47.515 47.515 21.273 47.515 47.515z" fill="#FFEDA2" stroke="#000" stroke-width="5"/>
            <path d="m329.94 578.73c-0.37503 7.375-0.20837 12.75 0.5 16.125 0.12497 0.75 0.35413 1.375 0.6875 1.875 0.66663 0.66667 1.1875 0.52083 1.5625-0.4375 0.66663-1.625 0.97913-7.5833 0.9375-17.875 3.2916-0.24998 10.562-0.39581 21.812-0.4375 1.0416 0.04169 1.6874-0.16665 1.9375-0.625 0.29161-0.62498 0.02077-1.2916-0.8125-2-3.2917-2.5-5.8959-3.2708-7.8125-2.3125-4 0.66669-9.0417 1.4584-15.125 2.375-0.0417-1.5416-0.06254-3.1875-0.0625-4.9375 1.875-0.24997 4.0625-0.43747 6.5625-0.5625-4e-5 0.12503 0.04162 0.27086 0.125 0.4375 0.16662 0.75003 0.56246 1.1042 1.1875 1.0625 0.66662-0.04164 1.1875-0.39581 1.5625-1.0625 0.66662-0.74997 1.6041-2.9791 2.8125-6.6875 0.87495-2.4166 2.1666-4.2916 3.875-5.625 0.91661-0.74996 1.0208-1.5 0.3125-2.25-0.79172-0.79162-2.375-1.8541-4.75-3.1875-0.75005-0.54162-2.5625-0.43746-5.4375 0.3125-2.1667 0.12504-4.2709 0.41671-6.3125 0.875 0.04163-1.7916 0.10413-3.375 0.1875-4.75 2.4166-0.49995 4.8958-0.95828 7.4375-1.375 2.1666-0.49995 3.3958-0.87495 3.6875-1.125 0.41662-0.29162 0.52079-0.64578 0.3125-1.0625-0.29171-0.49995-1.0626-0.91661-2.3125-1.25-1.2917-0.29161-2.5625-0.20828-3.8125 0.25-1.75 0.54172-3.5 1.0626-5.25 1.5625-4e-5 -0.04162 0.0208-0.08328 0.0625-0.125 0.04163-1.5 0.4583-2.8958 1.25-4.1875 0.29163-0.74994-0.02087-1.4583-0.9375-2.125-1.125-0.87494-2.6459-1.5416-4.5625-2-0.87503-0.24994-1.6042-0.04161-2.1875 0.625-0.4167 0.37506-0.33336 0.83339 0.25 1.375 1.2916 1.1251 2 2.4792 2.125 4.0625-3e-5 0.91672 0.0208 2 0.0625 3.25-2.5417 0.41672-5.1875 0.75005-7.9375 1-1.5417 0.16672-1.7709 0.64588-0.6875 1.4375 1.625 1 3.9583 1.2084 7 0.625 0.49997-0.12495 1.0416-0.18745 1.625-0.1875-3e-5 1.375-3e-5 2.9167 0 4.625-1.25 0.16671-2.3959 0.37504-3.4375 0.625-2.9167 0.54171-5.375 0.93754-7.375 1.1875-1-0.49996-1.9792-0.81246-2.9375-0.9375-0.29168-0.04162-0.56252 0.04171-0.8125 0.25-0.29168 0.29171-0.20835 0.66671 0.25 1.125 1.375 1.625 2.5833 5.1667 3.625 10.625 0.29165 2.75 1.3125 4.6459 3.0625 5.6875 0.04164 2e-5 0.10414 0.02086 0.1875 0.0625 0.62497 0.12502 0.97914-0.27081 1.0625-1.1875 0.29164 3e-5 0.60414-0.02081 0.9375-0.0625 1.4166-0.37497 3.2916-0.66664 5.625-0.875-3e-5 1.7917-0.02087 3.4792-0.0625 5.0625-7.0417 0.79169-14.708 1.6458-23 2.5625-1.125 0.04169-1.2708 0.54168-0.4375 1.5 1.75 1.625 3.5416 2.1667 5.375 1.625 7.125-1.875 12.5-2.8125 16.125-2.8125 0.54164-0.12498 1.1875-0.16665 1.9375-0.125m3.5625-15.375c1.5416-0.29163 3.0625-0.49997 4.5625-0.625 0.91663-0.12497 1.2291-0.4583 0.9375-1-0.41671-0.62496-1.1667-1.0625-2.25-1.3125-0.7917-0.16663-1.875-0.0833-3.25 0.25-4e-5 -1.5416-4e-5 -3.0208 0-4.4375 5.375-0.87496 8.5416-1.0625 9.5-0.5625 0.41662 0.29171 0.47912 1.1667 0.1875 2.625-1.25 5.375-2.1667 8.6459-2.75 9.8125-1.25-0.91664-3.5625-0.93747-6.9375-0.0625-4e-5 -1.6666-4e-5 -3.2291 0-4.6875m-3.5625-1.8125c-1.7917 0.4167-3.4584 0.7917-5 1.125-0.66669 0.1667-0.60419 0.56253 0.1875 1.1875 0.41664 0.2917 1.0625 0.39587 1.9375 0.3125 0.91664-0.16663 1.875-0.29163 2.875-0.375-3e-5 1.625 0.0208 3.2709 0.0625 4.9375-2.4167 0.41669-4.6667 0.75003-6.75 1-0.16669-0.99997-0.43753-2.0208-0.8125-3.0625-0.79169-4.375-1.2709-7.0416-1.4375-8 2.125-0.66663 5.0833-1.2916 8.875-1.875-3e-5 1.4167 0.0208 3 0.0625 4.75" fill="#000"/>
        </g>
    </g>
</svg>
