<?xml version="1.0" encoding="UTF-8"?>
<svg version="1.1" viewBox="0 0 101 101" xmlns="http://www.w3.org/2000/svg">
    <g fill="none" fill-rule="evenodd">
        <g transform="translate(-283 -776)" fill-rule="nonzero">
            <path d="m381.48 826.9c0 26.242-21.273 47.515-47.515 47.515s-47.515-21.273-47.515-47.515 21.273-47.515 47.515-47.515 47.515 21.273 47.515 47.515z" fill="#FFEDA2" stroke="#000" stroke-width="5"/>
            <path d="m330.81 799.28c2.125 2 3.8541 3.1875 5.1875 3.5625 0.66663 0.04171 1.1875-0.22912 1.5625-0.8125 0.16663-0.62495 0.16663-1.2916 0-2-0.75004-1.75-2.8125-2.875-6.1875-3.375-0.75003-0.16662-1.3125-0.14578-1.6875 0.0625-0.2917 0.12505-0.3542 0.43755-0.1875 0.9375 0.12497 0.54172 0.56247 1.0834 1.3125 1.625m-11.438 7.9375c-1.5417 0.16671-1.7917 0.64587-0.75 1.4375 1.875 1.1667 3.9375 1.5209 6.1875 1.0625 6.5416-0.91663 13.208-1.8958 20-2.9375 3.125-0.54163 4.9166-1.0208 5.375-1.4375 0.41661-0.29162 0.52078-0.64579 0.3125-1.0625-0.25005-0.54162-0.97922-0.99996-2.1875-1.375-1.4167-0.37496-3.9167 0.02088-7.5 1.1875-8 1.7917-15.146 2.8334-21.438 3.125m3.75 12.812c0.16664 0.37503 0.60414 0.87503 1.3125 1.5 0.79164 0.91669 1.6041 1.9167 2.4375 3 0.41664 0.50002 0.8958 0.77086 1.4375 0.8125 0.37497 2e-5 0.66663-0.20831 0.875-0.625 0.24997-0.49998 0.29163-1.25 0.125-2.25-0.1667-1.0416-1.7709-2.1666-4.8125-3.375-0.25003-0.04164-0.43753-0.08331-0.5625-0.125-3e-5 -0.24997 1.0625-1.75 3.1875-4.5 0.41664-0.49997 0.35414-1.0208-0.1875-1.5625-1.625-1.375-2.9167-2-3.875-1.875-0.41669 0.0417-0.60419 0.3542-0.5625 0.9375 0.37497 3.5-1.2917 7.1459-5 10.938-0.91669 0.91669-1.6042 1.6459-2.0625 2.1875-0.29169 0.54169-0.16669 0.75002 0.375 0.625 0.62498-0.04165 1.3542-0.37498 2.1875-1 2.0416-1.4166 3.75-2.9791 5.125-4.6875m8.75 12.312c-4e-5 14.042 0.2708 21.562 0.8125 22.562 0.04163 0.12499 0.12496 0.27083 0.25 0.4375 0.24996 0.29166 0.54163 0.39582 0.875 0.3125 0.74996-0.37501 1.25-1.9167 1.5-4.625 0.29163-2.4167 0.41663-4.8333 0.375-7.25-0.04171-1.7917 0.02079-5.7083 0.1875-11.75 2.25-0.12498 9.8333-0.20832 22.75-0.25 1.0416 0.04168 1.6874-0.16665 1.9375-0.625 0.2916-0.62498 0.02077-1.2916-0.8125-2-3.3751-2.5-6.0001-3.2916-7.875-2.375-4.1667 0.66669-9.4792 1.4792-15.938 2.4375-4e-5 -0.12498 0.02079-0.22915 0.0625-0.3125 0.04163-1.375 0.22913-2.6875 0.5625-3.9375 0.16663-0.79164-0.08337-1.4166-0.75-1.875-0.54171-0.37498-1-0.66664-1.375-0.875 1.5416-0.62497 3.5-2.1458 5.875-4.5625 0.16662 0.2917 0.60412 0.7292 1.3125 1.3125 1.6666 1.2917 3.375 2.75 5.125 4.375 0.41662 0.41669 0.89578 0.60419 1.4375 0.5625 0.37495 2e-5 0.62495-0.22914 0.75-0.6875 0.16661-0.41664 0.10411-1.125-0.1875-2.125-0.37505-1.625-2.8126-3.1041-7.3125-4.4375-0.12504-0.04164-0.20838-0.04164-0.25 0 1.125-1.75 2.4374-3.5625 3.9375-5.4375 0.41662-0.49996 0.35412-1.0208-0.1875-1.5625-1.625-1.375-2.9167-2-3.875-1.875-0.41671 0.04171-0.60421 0.37504-0.5625 1 0.29162 2.7917-1.25 6.2917-4.625 10.5-0.25004 3e-5 -1.0209 0.83336-2.3125 2.5-0.37504-0.24997-0.70837-0.37497-1-0.375-0.5417-0.24997-1.1875-0.16664-1.9375 0.25-0.4167 0.41669-0.45837 0.85419-0.125 1.3125 0.79163 1.375 1.2083 3.3334 1.25 5.875-4e-5 0.25002 0.0208 0.54168 0.0625 0.875-7.625 0.79168-15.938 1.6667-24.938 2.625-1.0417 0.04168-1.1875 0.54168-0.4375 1.5 1.5417 1.5417 3.3333 2.1042 5.375 1.6875 6.75-1.75 13.437-2.8125 20.062-3.1875" fill="#000"/>
        </g>
    </g>
</svg>
